<svg height="100%" version="1.1" width="100%" xmlns="http://www.w3.org/2000/svg" preserveAspectRatio="xMidYMid meet" viewBox="0 0 600 442" xmlns:xlink="http://www.w3.org/1999/xlink"><desc>Created with Snap</desc><defs/><g id="root" contentwidth="286.8" contentheight="160.2">
          <rect class="background" height="2000%" width="2000%" y="-1000%" x="-1000%" style="" fill="#fefefc"/>
          <rect class="watermarklayer" height="100%" width="100%" y="0" x="0" style="" fill="none"/>
          <g class="content" id="content" transform="matrix(1,0,0,1,202.9,231.3)">
            <g class="icon" style="mask: url(#mask);">
            <svg height="160.2" version="1.1" width="286.8" xmlns="http://www.w3.org/2000/svg" x="-46.3" y="-90.4"><desc>Created with Snap</desc><defs/><svg xmlns:xlink="http://www.w3.org/1999/xlink" version="1.1" xmlns="http://www.w3.org/2000/svg" viewBox="0 0 286.8 160.2"><defs/><g><path fill="#3a69fa" stroke="none" paint-order="stroke fill markers" d=" M 284.3 32.5 L 37.5 32.5 L 37.5 103.69999999999999 L 36.5 107.69999999999999 L 36.5 127.69999999999999 L 0.5 127.69999999999999 L 7.5 127.69999999999999 L 7.5 125.69999999999999 L 12.5 125.69999999999999 L 12.5 123.69999999999999 L 17.5 123.69999999999999 L 17.5 121.69999999999999 L 22.5 121.69999999999999 L 22.5 119.69999999999999 L 27.5 119.69999999999999 L 27.5 80.1 L 28.5 78.1 L 28.5 22.5 L 254.3 22.5 L 264.3 17.5 L 266.3 19.5 L 274.3 12.5 L 284.3 32.5" style=""/></g><desc>Created with Snap</desc></svg></svg></g>
            <g id="icon_name_and_slogan_gap">
            </g>
            <g class="name_and_slogan" id="name_and_slogan_id">
              <g class="name"><g id="nameDefaultGroup"><path d="M6.2 -50.1Q10.7 -50.9 15.3 -51.2Q20 -51.5 25.7 -49.9Q31.5 -48.4 34.9 -43.7Q38.2 -39.1 38.1 -32.9Q38 -26.7 35.7 -22.6Q33.5 -18.6 29.4 -16.2Q25.3 -13.8 20.4 -13.4Q15.5 -12.9 9.8 -14.6L9.6 1.4L6.2 1.4Q6.5 -18 6.2 -50.1zM9.8 -47L9.8 -19.1Q11 -18.3 13.4 -17.7Q15.8 -17.2 19.5 -17.4Q23.3 -17.7 27 -19.5Q30.7 -21.4 32.5 -24.8Q34.3 -28.1 34 -33.6Q33.8 -39.1 31.4 -42Q29 -45 24 -46.7Q19.1 -48.4 9.8 -47zM50.9 -47.8L48.7 -47.8L48.9 -51.8L83.5 -50.6L83.5 -47L54.6 -48.1L54.6 -22.8L81.3 -21.9L81 -18.3L54.6 -19.4L54.3 1.4L50.9 1.4L50.9 -21.4L50.9 -47.8zM90.6 1.4Q93.7 -23.3 97.6 -52.3Q106.9 -26.4 113.3 -10.1Q119.8 -27.6 129.4 -52.9Q133.3 -23.6 136.4 1.1L132.8 1.1Q129.7 -23.3 127.7 -38.8Q123.5 -25.9 112.8 -1.1Q103.8 -25 99 -38Q97.3 -22.2 93.9 1.4L90.6 1.4zM143.6 -36.7Q145.7 -42.2 148.5 -45.4Q151.3 -48.7 155.2 -50.2Q159.2 -51.8 163.7 -51.3Q168.2 -50.9 172.4 -47.5Q176.6 -44.2 178.7 -37Q180.8 -29.8 180.6 -22.1Q180.3 -14.3 177 -8.6Q173.8 -2.8 169.7 -0.6Q165.7 1.7 160.3 1.4Q155 1.1 150.9 -1.8Q146.8 -4.8 144.3 -10.4Q141.8 -16 141.6 -23.6Q141.5 -31.2 143.6 -36.7zM164.1 -47.2Q160.6 -47.8 157.4 -46.8Q154.1 -45.8 151.3 -42.9Q148.5 -39.9 147 -34.9Q145.4 -29.8 145.4 -23.3Q145.4 -16.9 147.7 -12.1Q149.9 -7.3 153 -4.9Q156.1 -2.5 160.3 -2.2Q164.5 -2 167.6 -3.8Q170.7 -5.6 173.4 -10.3Q176.1 -14.9 176.5 -22.1Q176.9 -29.2 175.2 -34.9Q173.5 -40.5 170.6 -43.6Q167.6 -46.7 164.1 -47.2zM185.1 -34.5Q184.5 -40.2 186.5 -43.9Q188.4 -47.5 192.9 -49.8Q197.4 -52 203.5 -51.9Q209.5 -51.8 213.3 -48.2Q217.1 -44.7 218 -38L214.3 -37.1Q213.2 -42.8 210.4 -45.3Q207.6 -47.8 203.2 -48Q198.8 -48.1 195.3 -46.5Q191.8 -45 190.1 -41.9Q188.4 -38.8 188.6 -34.7Q188.7 -30.7 191.8 -27.8Q194.9 -25 200.2 -23.9Q205.6 -22.8 209.5 -20.2Q213.5 -17.7 214 -12.7Q214.6 -7.6 212.3 -3.7Q210.1 0.3 205.6 1.3Q201.1 2.2 197.6 1.1Q194.1 0 191.8 -2.2Q189.6 -4.5 188.4 -8.4L192.1 -9Q193.2 -6.2 194.9 -4.6Q196.6 -3.1 198.8 -2.4Q201.1 -1.7 204.3 -2.4Q207.6 -3.1 209.2 -5.6Q210.9 -8.2 210.7 -12Q210.4 -15.8 206.3 -17.7Q202.2 -19.7 197.6 -20.8Q192.9 -21.9 189.3 -25.3Q185.6 -28.7 185.1 -34.5z" style="" fill="#3a69fa" id="namepathdata"/></g></g>
              <g class="slogan"><g id="sloganDefaultGroup"><path d="M72 30.3L72 32L60.8 32L60.8 30.3L64.2 30.3L64.2 14L66.4 14L66.4 19.3L71.5 19.3L71.5 21L66.4 21L66.4 30.3L72 30.3zM56.4 17.4L55.5 14.1L57.6 14.1L58.5 17.4L56.4 17.4zM58.1 29.7L59.8 29.2L59.8 31L56.2 32.1L56.2 20.6L54.1 20.6L54.1 18.9L58.1 18.9L58.1 29.7zM82.5 17L79 17L79 15.4L84.3 15.4L83.7 14L86 14L86.5 15.4L91.6 15.4L91.6 17L84.7 17L82.2 21.3L88.7 20.9L87.9 18L90 18L91.5 23.4L89.4 23.4L89.2 22.5L80 23L80 21.3L82.5 17zM76.4 14.1L78.5 18L76.2 18L74.1 14.1L76.4 14.1zM76.1 22.8L74.1 18.9L76.4 18.9L78.4 22.8L76.1 22.8zM80.5 24.1L82.3 24.1L81.5 32L79.1 32L78.6 30.4L79.8 30.4L80.5 24.1zM84.3 24.1L86.2 24.1L86.2 32L84.3 32L84.3 24.1zM92.3 29L91.7 31.9L88.3 31.9L88.3 24.1L90.1 24.1L90.1 30.4L90.7 30.4L91 29L92.3 29zM76.3 24.2L78.4 24.2L76.5 32L74.2 32L76.3 24.2zM98.6 20.1L98.6 32L96.9 32L96.9 20.1L94 20.1L94 18.5L96.9 18.5L96.9 16.2L94.2 16.5L94.2 14.9L101.1 14.3L101.1 15.8L98.6 16.1L98.6 18.5L101.2 18.5L101.2 20.1L98.6 20.1zM111.3 20.8L102 20.8L102 14.5L111.3 14.5L111.3 20.8zM109.3 16L104 16L104 19.4L109.3 19.4L109.3 16zM94.7 21.3L96.2 21.3L95.5 31.3L94 31.3L94.7 21.3zM100.8 21.3L101.3 31.3L99.8 31.3L99.4 21.3L100.8 21.3zM112.2 30.3L112.2 31.8L101.6 31.8L101.6 30.3L105.6 30.3L105.6 27.6L102.2 27.6L102.2 26.1L105.6 26.1L105.6 23.7L101.8 23.7L101.8 22.2L111.6 22.2L111.6 23.7L107.6 23.7L107.6 26.1L111.3 26.1L111.3 27.6L107.6 27.6L107.6 30.3L112.2 30.3zM119.8 16.9L114.4 16.9L114.4 15.3L121.8 15.3L121.3 13.9L123.9 13.9L124.3 15.3L131.5 15.3L131.5 16.9L126.3 16.9L126.3 22.6L124.3 22.6L124.3 16.9L121.7 16.9L121.7 22.6L119.8 22.6L119.8 16.9zM116.4 22.6L114.3 22.6L116.2 18L118.2 18L116.4 22.6zM129.8 18L131.6 22.6L129.5 22.6L127.8 18L129.8 18zM128 32L122.6 29.4L117.9 32L114.2 32L120.6 28.5L115.7 26.1L119.3 26.1L122.3 27.5L126.9 25L115 25L115 23.4L130.8 23.4L130.8 24.8L124.3 28.5L131.9 32L128 32zM136.4 18.5L134.3 18.5L136 14L138.1 14L137.7 15L143.1 15L143.1 16.4L140.4 16.4L141.2 18.3L139.3 18.3L138.5 16.4L137.2 16.4L136.4 18.5zM151.8 15L151.8 16.4L149.2 16.4L149.8 18.3L147.9 18.3L147.3 16.4L145.8 16.4L145 18.4L142.9 18.4L144.6 14L146.7 14L146.3 15L151.8 15zM139.7 21.4L137.6 21.4L136.4 18.8L138.5 18.8L139.7 21.4zM140.5 19.3L151 19.3L151 30.7L149 32.3L147.8 31L149.1 29.9L149.1 20.9L140.5 20.9L140.5 19.3zM135.2 21.9L137.1 21.9L137.1 32L135.2 32L135.2 21.9zM139.1 22.2L147 22.2L147 30L139.1 30L139.1 22.2zM141 25.3L145.2 25.3L145.2 23.6L141 23.6L141 25.3zM141 28.6L145.2 28.6L145.2 26.8L141 26.8L141 28.6zM171.9 27.3L171.9 29L164 29L164 32L161.9 32L161.9 29L154.1 29L154.1 27.3L161.9 27.3L161.9 25.5L155 25.5L155 15.9L157.8 15.9L157.1 13.9L159.4 13.9L160.2 15.9L165.9 15.9L166.6 13.9L168.9 13.9L168.2 15.9L171 15.9L171 25.5L164 25.5L164 27.3L171.9 27.3zM161.9 17.5L157.1 17.5L157.1 19.9L161.9 19.9L161.9 17.5zM164 19.9L168.9 19.9L168.9 17.5L164 17.5L164 19.9zM161.9 21.5L157.1 21.5L157.1 23.9L161.9 23.9L161.9 21.5zM164 23.9L168.9 23.9L168.9 21.5L164 21.5L164 23.9z" style="" fill="#3a69fa" id="sloganpathdata"/></g></g>
            </g>
            <g class="border">
            </g>
          </g>
          <defs id="defs">
            <mask xmlns="http://www.w3.org/2000/svg" id="mask">
                <rect id="showAll" fill="white" x="-46.3" y="-90.4" width="286.8" height="160.2"/>
                <rect id="hideNameBg" fill="black" x="0" y="0" width="0" height="0" stroke-width="2" stroke="black"/>
                <rect id="hideSloganBg" fill="black" x="0" y="0" width="0" height="0" stroke-width="2" stroke="black"/>
            <path d="M6.2 -50.1Q10.7 -50.9 15.3 -51.2Q20 -51.5 25.7 -49.9Q31.5 -48.4 34.9 -43.7Q38.2 -39.1 38.1 -32.9Q38 -26.7 35.7 -22.6Q33.5 -18.6 29.4 -16.2Q25.3 -13.8 20.4 -13.4Q15.5 -12.9 9.8 -14.6L9.6 1.4L6.2 1.4Q6.5 -18 6.2 -50.1zM9.8 -47L9.8 -19.1Q11 -18.3 13.4 -17.7Q15.8 -17.2 19.5 -17.4Q23.3 -17.7 27 -19.5Q30.7 -21.4 32.5 -24.8Q34.3 -28.1 34 -33.6Q33.8 -39.1 31.4 -42Q29 -45 24 -46.7Q19.1 -48.4 9.8 -47zM50.9 -47.8L48.7 -47.8L48.9 -51.8L83.5 -50.6L83.5 -47L54.6 -48.1L54.6 -22.8L81.3 -21.9L81 -18.3L54.6 -19.4L54.3 1.4L50.9 1.4L50.9 -21.4L50.9 -47.8zM90.6 1.4Q93.7 -23.3 97.6 -52.3Q106.9 -26.4 113.3 -10.1Q119.8 -27.6 129.4 -52.9Q133.3 -23.6 136.4 1.1L132.8 1.1Q129.7 -23.3 127.7 -38.8Q123.5 -25.9 112.8 -1.1Q103.8 -25 99 -38Q97.3 -22.2 93.9 1.4L90.6 1.4zM143.6 -36.7Q145.7 -42.2 148.5 -45.4Q151.3 -48.7 155.2 -50.2Q159.2 -51.8 163.7 -51.3Q168.2 -50.9 172.4 -47.5Q176.6 -44.2 178.7 -37Q180.8 -29.8 180.6 -22.1Q180.3 -14.3 177 -8.6Q173.8 -2.8 169.7 -0.6Q165.7 1.7 160.3 1.4Q155 1.1 150.9 -1.8Q146.8 -4.8 144.3 -10.4Q141.8 -16 141.6 -23.6Q141.5 -31.2 143.6 -36.7zM164.1 -47.2Q160.6 -47.8 157.4 -46.8Q154.1 -45.8 151.3 -42.9Q148.5 -39.9 147 -34.9Q145.4 -29.8 145.4 -23.3Q145.4 -16.9 147.7 -12.1Q149.9 -7.3 153 -4.9Q156.1 -2.5 160.3 -2.2Q164.5 -2 167.6 -3.8Q170.7 -5.6 173.4 -10.3Q176.1 -14.9 176.5 -22.1Q176.9 -29.2 175.2 -34.9Q173.5 -40.5 170.6 -43.6Q167.6 -46.7 164.1 -47.2zM185.1 -34.5Q184.5 -40.2 186.5 -43.9Q188.4 -47.5 192.9 -49.8Q197.4 -52 203.5 -51.9Q209.5 -51.8 213.3 -48.2Q217.1 -44.7 218 -38L214.3 -37.1Q213.2 -42.8 210.4 -45.3Q207.6 -47.8 203.2 -48Q198.8 -48.1 195.3 -46.5Q191.8 -45 190.1 -41.9Q188.4 -38.8 188.6 -34.7Q188.7 -30.7 191.8 -27.8Q194.9 -25 200.2 -23.9Q205.6 -22.8 209.5 -20.2Q213.5 -17.7 214 -12.7Q214.6 -7.6 212.3 -3.7Q210.1 0.3 205.6 1.3Q201.1 2.2 197.6 1.1Q194.1 0 191.8 -2.2Q189.6 -4.5 188.4 -8.4L192.1 -9Q193.2 -6.2 194.9 -4.6Q196.6 -3.1 198.8 -2.4Q201.1 -1.7 204.3 -2.4Q207.6 -3.1 209.2 -5.6Q210.9 -8.2 210.7 -12Q210.4 -15.8 206.3 -17.7Q202.2 -19.7 197.6 -20.8Q192.9 -21.9 189.3 -25.3Q185.6 -28.7 185.1 -34.5z" style="stroke-width: 0;" fill="#000000" id="masknamepathdata" stroke="#000000" paint-order="stroke" transform="matrix(1,0,0,1,0,0)"/><path d="M72 30.3L72 32L60.8 32L60.8 30.3L64.2 30.3L64.2 14L66.4 14L66.4 19.3L71.5 19.3L71.5 21L66.4 21L66.4 30.3L72 30.3zM56.4 17.4L55.5 14.1L57.6 14.1L58.5 17.4L56.4 17.4zM58.1 29.7L59.8 29.2L59.8 31L56.2 32.1L56.2 20.6L54.1 20.6L54.1 18.9L58.1 18.9L58.1 29.7zM82.5 17L79 17L79 15.4L84.3 15.4L83.7 14L86 14L86.5 15.4L91.6 15.4L91.6 17L84.7 17L82.2 21.3L88.7 20.9L87.9 18L90 18L91.5 23.4L89.4 23.4L89.2 22.5L80 23L80 21.3L82.5 17zM76.4 14.1L78.5 18L76.2 18L74.1 14.1L76.4 14.1zM76.1 22.8L74.1 18.9L76.4 18.9L78.4 22.8L76.1 22.8zM80.5 24.1L82.3 24.1L81.5 32L79.1 32L78.6 30.4L79.8 30.4L80.5 24.1zM84.3 24.1L86.2 24.1L86.2 32L84.3 32L84.3 24.1zM92.3 29L91.7 31.9L88.3 31.9L88.3 24.1L90.1 24.1L90.1 30.4L90.7 30.4L91 29L92.3 29zM76.3 24.2L78.4 24.2L76.5 32L74.2 32L76.3 24.2zM98.6 20.1L98.6 32L96.9 32L96.9 20.1L94 20.1L94 18.5L96.9 18.5L96.9 16.2L94.2 16.5L94.2 14.9L101.1 14.3L101.1 15.8L98.6 16.1L98.6 18.5L101.2 18.5L101.2 20.1L98.6 20.1zM111.3 20.8L102 20.8L102 14.5L111.3 14.5L111.3 20.8zM109.3 16L104 16L104 19.4L109.3 19.4L109.3 16zM94.7 21.3L96.2 21.3L95.5 31.3L94 31.3L94.7 21.3zM100.8 21.3L101.3 31.3L99.8 31.3L99.4 21.3L100.8 21.3zM112.2 30.3L112.2 31.8L101.6 31.8L101.6 30.3L105.6 30.3L105.6 27.6L102.2 27.6L102.2 26.1L105.6 26.1L105.6 23.7L101.8 23.7L101.8 22.2L111.6 22.2L111.6 23.7L107.6 23.7L107.6 26.1L111.3 26.1L111.3 27.6L107.6 27.6L107.6 30.3L112.2 30.3zM119.8 16.9L114.4 16.9L114.4 15.3L121.8 15.3L121.3 13.9L123.9 13.9L124.3 15.3L131.5 15.3L131.5 16.9L126.3 16.9L126.3 22.6L124.3 22.6L124.3 16.9L121.7 16.9L121.7 22.6L119.8 22.6L119.8 16.9zM116.4 22.6L114.3 22.6L116.2 18L118.2 18L116.4 22.6zM129.8 18L131.6 22.6L129.5 22.6L127.8 18L129.8 18zM128 32L122.6 29.4L117.9 32L114.2 32L120.6 28.5L115.7 26.1L119.3 26.1L122.3 27.5L126.9 25L115 25L115 23.4L130.8 23.4L130.8 24.8L124.3 28.5L131.9 32L128 32zM136.4 18.5L134.3 18.5L136 14L138.1 14L137.7 15L143.1 15L143.1 16.4L140.4 16.4L141.2 18.3L139.3 18.3L138.5 16.4L137.2 16.4L136.4 18.5zM151.8 15L151.8 16.4L149.2 16.4L149.8 18.3L147.9 18.3L147.3 16.4L145.8 16.4L145 18.4L142.9 18.4L144.6 14L146.7 14L146.3 15L151.8 15zM139.7 21.4L137.6 21.4L136.4 18.8L138.5 18.8L139.7 21.4zM140.5 19.3L151 19.3L151 30.7L149 32.3L147.8 31L149.1 29.9L149.1 20.9L140.5 20.9L140.5 19.3zM135.2 21.9L137.1 21.9L137.1 32L135.2 32L135.2 21.9zM139.1 22.2L147 22.2L147 30L139.1 30L139.1 22.2zM141 25.3L145.2 25.3L145.2 23.6L141 23.6L141 25.3zM141 28.6L145.2 28.6L145.2 26.8L141 26.8L141 28.6zM171.9 27.3L171.9 29L164 29L164 32L161.9 32L161.9 29L154.1 29L154.1 27.3L161.9 27.3L161.9 25.5L155 25.5L155 15.9L157.8 15.9L157.1 13.9L159.4 13.9L160.2 15.9L165.9 15.9L166.6 13.9L168.9 13.9L168.2 15.9L171 15.9L171 25.5L164 25.5L164 27.3L171.9 27.3zM161.9 17.5L157.1 17.5L157.1 19.9L161.9 19.9L161.9 17.5zM164 19.9L168.9 19.9L168.9 17.5L164 17.5L164 19.9zM161.9 21.5L157.1 21.5L157.1 23.9L161.9 23.9L161.9 21.5zM164 23.9L168.9 23.9L168.9 21.5L164 21.5L164 23.9z" style="stroke-width: 0;" fill="#000000" id="masksloganpathdata" stroke="#000000" paint-order="stroke" transform="matrix(1,0,0,1,0,0)"/></mask>
          
          </defs>
        </g>
        </svg>